<?xml version="1.0" encoding="utf-8"?>
<!-- Generator: Adobe Illustrator 28.0.0, SVG Export Plug-In . SVG Version: 6.00 Build 0)  -->
<svg version="1.1" id="Layer_1" xmlns="http://www.w3.org/2000/svg" xmlns:xlink="http://www.w3.org/1999/xlink" x="0px" y="0px"
	 viewBox="0 0 566.93 396.85" style="enable-background:new 0 0 566.93 396.85;" xml:space="preserve">
<style type="text/css">
	.st0{fill:#18322D;}
	.st1{fill:#B98C4A;}
	.st2{fill:#FFFFFF;}
</style>
<g>
	<g>
		<path class="st1" d="M182.03,339.61l-11.07-20.49c0.16,2.93,0.2,6.02,0.2,8.29v12.2h-5.38v-26.98h7.13l11.3,20.88
			c-0.16-2.89-0.19-6.18-0.19-8.49v-12.4h5.34l0.04,26.98H182.03z"/>
		<path class="st1" d="M214.56,331.48l-2.69,8.13h-5.73l9.7-26.98h6.74l9.51,26.98h-5.84l-2.65-8.13H214.56z M215.92,327.21h6.31
			l-3.12-9.97L215.92,327.21z"/>
		<path class="st1" d="M248.99,339.61v-26.98h5.38v26.98H248.99z"/>
		<path class="st1" d="M295.43,339.61h-5.88c-0.66-1.84-1.05-3.48-1.32-6.02c-0.35-2.89-1.44-4.65-3.62-4.81
			c-0.74-0.04-1.4-0.04-2.1-0.04h-3.12v10.87H274v-26.98h9.82c1.56,0,2.57,0.04,3.9,0.2c3.9,0.47,7.05,2.5,7.05,7.16
			c0,3.48-2.06,5.67-5.26,6.57c2.65,1.02,3.66,3.25,3.97,6.26C293.83,336.09,294.34,338.09,295.43,339.61z M283.08,324.71
			c0.93,0,1.6,0,2.18-0.04c2.14-0.2,3.86-1.25,3.86-3.87s-1.44-3.56-3.54-3.83c-0.63-0.08-1.29-0.12-2.26-0.12h-3.94v7.86H283.08z"
			/>
		<path class="st1" d="M338.2,326.12c0,8.45-5.03,14.04-13.29,14.04c-8.3,0-13.29-5.59-13.29-14.04c0-8.49,4.99-14.04,13.29-14.04
			C333.17,312.08,338.2,317.63,338.2,326.12z M332.55,326.12c0-6.33-2.88-10.01-7.64-10.01c-4.79,0-7.68,3.68-7.68,10.01
			c0,6.3,2.88,10.01,7.68,10.01C329.67,336.13,332.55,332.42,332.55,326.12z"/>
		<path class="st1" d="M377.42,331.55c0,5.01-3.78,7.39-7.36,7.9c-1.36,0.16-2.22,0.16-3.74,0.16h-9.78v-26.98h9.62
			c1.36,0,2.14,0,3.47,0.16c4.36,0.55,6.78,3.09,6.78,6.73c0,2.78-1.48,4.61-4.17,5.55C375.71,325.96,377.42,328.07,377.42,331.55z
			 M361.92,323.69h4.05c0.66,0,1.29-0.04,1.91-0.12c1.95-0.31,2.92-1.41,2.92-3.36c0-2.03-1.25-3.01-3.04-3.25
			c-0.62-0.08-1.32-0.12-1.95-0.12h-3.9V323.69z M371.77,331.59c0-2.5-1.52-3.56-3.47-3.75c-0.66-0.08-1.29-0.12-1.91-0.12h-4.48
			v7.63h4.68c0.62,0,1.28,0,1.79-0.04C370.25,335.15,371.77,333.86,371.77,331.59z"/>
		<path class="st1" d="M395.76,339.61v-26.98h5.38v26.98H395.76z"/>
	</g>
	<g>
		<g>
			<path class="st1" d="M97.54,272.09c-28.52,0-41.5-19.18-41.5-36.99s12.99-36.99,41.5-36.99c6.54,0,11.5,0.97,15.48,1.76
				c2.59,0.51,4.83,0.95,6.74,0.95c2.25,0,3.96-0.63,5.54-2.03l0.19-0.17h1.48v21.78h-2.36l-0.09-0.55
				c-0.12-0.77-3.22-18.8-26.97-18.8c-15.7,0-32.6,10.4-32.6,33.23s16.9,33.23,32.6,33.23c26.69,0,29.62-16.46,29.74-17.16
				l0.09-0.55l2.57,0l-0.1,0.74C129.81,250.75,126.55,272.09,97.54,272.09z"/>
			<path class="st1" d="M97.54,198.76c10.83,0,17.32,2.71,22.22,2.71c2.23,0,4.14-0.56,5.97-2.19h0.58v20.47h-1.15
				c0,0-2.99-19.35-27.62-19.35c-22.09,0-33.26,16.89-33.26,33.88s11.16,33.88,33.26,33.88c27.62,0,30.38-17.71,30.38-17.71h1.27
				c0,0-2.88,20.98-31.65,20.98c-27.27,0-40.85-18.12-40.85-36.34S70.27,198.76,97.54,198.76 M97.54,197.45
				c-12.99,0-23.91,4.05-31.58,11.72C59.15,216,55.39,225.2,55.39,235.1s3.76,19.1,10.58,25.92c7.66,7.67,18.58,11.72,31.58,11.72
				c8.48,0,20.16-1.9,27.62-10.97c4.5-5.47,5.29-10.91,5.32-11.14l0.2-1.48h-1.49h-1.27h-1.12l-0.17,1.1
				c-0.11,0.67-3.01,16.61-29.09,16.61c-15.39,0-31.95-10.2-31.95-32.58s16.56-32.58,31.95-32.58c23.16,0,26.21,17.5,26.33,18.25
				l0.17,1.1l1.11,0h1.15h1.3v-1.3v-20.47v-1.3h-1.3h-0.58h-0.5l-0.37,0.33c-1.47,1.31-3,1.87-5.11,1.87
				c-1.84,0-4.05-0.43-6.61-0.94C109.14,198.43,104.15,197.45,97.54,197.45L97.54,197.45z"/>
		</g>
		<g>
			<path class="st1" d="M181.37,271.58v-2.47l0.69,0.04c0.01,0,0.14,0.01,0.36,0.01c1.03,0,4.52-0.16,5.96-2.25
				c0.87-1.28,0.86-3.12-0.05-5.47l-8.12-20.57h-23.27l-4.91,13.49c-1.62,4.45-1.55,7.96,0.19,10.44c2.83,4.04,9.42,4.36,11.37,4.36
				c0.43,0,0.68-0.01,0.69-0.01l0.69-0.04l0,2.47h-28.81v-2.49l0.71,0.07c0.01,0,0.08,0.01,0.2,0.01c1.03,0,6.32-0.39,9.14-8.18
				l17.95-49.14c1.47-4.12,1.39-8.5-0.22-12.32l-0.38-0.91h8.33l24.44,62.35c3.02,7.8,8.15,8.19,9.15,8.19c0.11,0,0.18,0,0.19-0.01
				l0.71-0.06l0,2.49H181.37z M179.1,237.92l-10.98-27.81l-10.14,27.81H179.1z"/>
			<path class="st1" d="M171.43,199.27l24.28,61.93c3.15,8.13,8.53,8.61,9.76,8.61c0.16,0,0.25-0.01,0.25-0.01v1.13h-23.7v-1.13
				c0,0,0.15,0.01,0.4,0.01c1.88,0,9.66-0.48,6.51-8.61l-8.29-20.98h-24.17l-5.06,13.92c-5.38,14.8,8.75,15.68,12.16,15.68
				c0.46,0,0.72-0.02,0.72-0.02v1.13h-27.5v-1.13c0,0,0.09,0.01,0.26,0.01c1.26,0,6.81-0.48,9.75-8.61l17.95-49.14
				c1.5-4.2,1.5-8.7-0.23-12.8H171.43 M157.05,238.58h23.01l-11.97-30.3L157.05,238.58 M172.32,197.96h-0.89h-6.9h-1.96l0.76,1.81
				c1.55,3.67,1.62,7.88,0.2,11.85l-17.95,49.13c-2.67,7.38-7.57,7.75-8.52,7.75c-0.08,0-0.13,0-0.15,0l-1.4-0.1l-0.01,1.4v1.13v1.3
				h1.3h27.5h1.3v-1.3v-1.13v-1.38l-1.38,0.08c-0.02,0-0.25,0.01-0.65,0.01c-1.87,0-8.18-0.29-10.83-4.08
				c-1.61-2.3-1.65-5.61-0.11-9.85l4.75-13.06h22.37l7.96,20.16c0.82,2.13,0.87,3.77,0.12,4.86c-0.99,1.45-3.45,1.97-5.42,1.97
				c-0.19,0-0.3-0.01-0.32-0.01l-1.37-0.08l0,1.38v1.13v1.3h1.3h23.7h1.3v-1.3v-1.13v-1.43l-1.43,0.14c-0.01,0-0.05,0-0.13,0
				c-0.92,0-5.68-0.37-8.54-7.77l-24.28-61.94L172.32,197.96L172.32,197.96z M158.91,237.27l9.23-25.32l10,25.32H158.91
				L158.91,237.27z"/>
		</g>
		<g>
			<path class="st1" d="M226.75,209.68v44.46c0,3.52,1.09,15.03,15.06,15.03c0.36,0,0.58-0.01,0.59-0.01l0.7-0.05l0,2.48h-28.81
				v-2.47l0.69,0.04c0.01,0,0.12,0.01,0.31,0.01c1.95,0,8.31-0.57,8.31-7.96v-52.21c0-7.38-6.36-7.96-8.31-7.96
				c-0.19,0-0.3,0.01-0.32,0.01l-0.69,0.04l0-2.47h13.64l41.71,57.8v-40.36c0-3.52-1.09-15.03-15.06-15.03
				c-0.36,0-0.58,0.01-0.59,0.01l-0.7,0.05l0-2.48h28.92v2.47l-0.69-0.04c-0.01,0-0.13-0.01-0.32-0.01c-1.98,0-8.42,0.57-8.42,7.96
				v64.46L226.75,209.68z"/>
			<path class="st1" d="M281.56,199.27v1.13c0,0-0.13-0.01-0.36-0.01c-1.73,0-9.08,0.48-9.08,8.61v62.44l-46.03-63.77v46.47
				c0,14.8,12.7,15.68,15.71,15.68c0.4,0,0.63-0.02,0.63-0.02v1.13h-27.5v-1.13c0,0,0.13,0.01,0.36,0.01c1.71,0,8.96-0.48,8.96-8.61
				v-52.21c0-8.13-7.25-8.61-8.96-8.61c-0.23,0-0.36,0.01-0.36,0.01v-1.13h12.66l42.69,59.17v-42.38c0-14.8-12.7-15.68-15.71-15.68
				c-0.4,0-0.63,0.02-0.63,0.02v-1.13H281.56 M282.87,197.96h-1.3h-27.62h-1.3v1.3v1.13v1.4l1.39-0.1c0.02,0,0.21-0.01,0.54-0.01
				c3.38,0,14.4,1.04,14.4,14.37v38.35l-40.33-55.9l-0.39-0.54h-0.67h-12.66h-1.3v1.3v1.13v1.39l1.39-0.09
				c0.01,0,0.11-0.01,0.27-0.01c6.91,0,7.66,5.11,7.66,7.3v52.21c0,2.2-0.75,7.3-7.66,7.3c-0.16,0-0.26,0-0.28-0.01l-1.38-0.08
				l0,1.38v1.13v1.3h1.3h27.5h1.3v-1.3v-1.13v-1.4l-1.39,0.1c-0.02,0-0.21,0.01-0.54,0.01c-3.38,0-14.41-1.04-14.41-14.37V211.7
				l43.67,60.5l2.36,3.27v-4.03v-62.44c0-2.2,0.76-7.3,7.77-7.3c0.16,0,0.26,0,0.28,0.01l1.38,0.08l0-1.38v-1.13V197.96
				L282.87,197.96z"/>
		</g>
		<g>
			<path class="st1" d="M334.31,271.58v-2.47l0.69,0.04c0.01,0,0.14,0.01,0.36,0.01c1.03,0,4.52-0.16,5.96-2.25
				c0.87-1.28,0.86-3.12-0.05-5.47l-8.12-20.57h-23.27l-4.91,13.49c-1.62,4.45-1.55,7.96,0.19,10.44c2.83,4.05,9.42,4.36,11.37,4.36
				c0.43,0,0.68-0.01,0.69-0.01l0.69-0.04l0,2.47h-28.81v-2.49l0.71,0.07c0.01,0,0.08,0.01,0.2,0.01c1.03,0,6.32-0.39,9.14-8.18
				l17.95-49.14c1.47-4.12,1.39-8.5-0.22-12.32l-0.38-0.91h8.33l24.44,62.35c3.02,7.8,8.15,8.19,9.15,8.19c0.11,0,0.18,0,0.19-0.01
				l0.71-0.06l0,2.49H334.31z M332.05,237.92l-10.98-27.81l-10.14,27.81H332.05z"/>
			<path class="st1" d="M324.38,199.27l24.28,61.93c3.15,8.13,8.53,8.61,9.76,8.61c0.16,0,0.25-0.01,0.25-0.01v1.13h-23.7v-1.13
				c0,0,0.15,0.01,0.4,0.01c1.88,0,9.66-0.48,6.51-8.61l-8.29-20.98h-24.17l-5.06,13.92c-5.38,14.8,8.75,15.68,12.16,15.68
				c0.46,0,0.72-0.02,0.72-0.02v1.13h-27.5v-1.13c0,0,0.09,0.01,0.26,0.01c1.26,0,6.81-0.48,9.75-8.61l17.95-49.14
				c1.5-4.2,1.5-8.7-0.23-12.8H324.38 M309.99,238.58h23.01l-11.97-30.3L309.99,238.58 M325.27,197.96h-0.89h-6.9h-1.96l0.76,1.81
				c1.55,3.67,1.62,7.88,0.2,11.85l-17.95,49.13c-2.67,7.38-7.57,7.75-8.52,7.75c-0.08,0-0.13,0-0.15,0l-1.4-0.1l-0.01,1.4v1.13v1.3
				h1.3h27.5h1.3v-1.3v-1.13v-1.38l-1.38,0.08c-0.02,0-0.25,0.01-0.65,0.01c-1.87,0-8.18-0.29-10.83-4.08
				c-1.61-2.3-1.65-5.61-0.11-9.85l4.75-13.06h22.37l7.96,20.16c0.82,2.13,0.87,3.77,0.12,4.86c-0.99,1.45-3.45,1.97-5.42,1.97
				c-0.19,0-0.3-0.01-0.32-0.01l-1.37-0.08l0,1.38v1.13v1.3h1.3h23.7h1.3v-1.3v-1.13v-1.43l-1.43,0.14c-0.01,0-0.05,0-0.13,0
				c-0.92,0-5.68-0.37-8.54-7.77l-24.28-61.94L325.27,197.96L325.27,197.96z M311.86,237.27l9.23-25.32l10,25.32H311.86
				L311.86,237.27z"/>
		</g>
		<g>
			<path class="st1" d="M410.04,271.58v-2.47l0.69,0.04c0.01,0,0.14,0.01,0.36,0.01c1.03,0,4.52-0.16,5.96-2.25
				c0.87-1.28,0.86-3.12-0.05-5.47l-8.12-20.57H385.6l-4.91,13.49c-1.62,4.45-1.55,7.96,0.19,10.44c2.83,4.05,9.42,4.36,11.37,4.36
				c0.43,0,0.68-0.01,0.69-0.01l0.69-0.04l0,2.47h-28.81v-2.49l0.71,0.07c0.01,0,0.08,0.01,0.2,0.01c1.03,0,6.32-0.39,9.14-8.18
				l17.95-49.14c1.47-4.12,1.39-8.5-0.22-12.32l-0.38-0.91h8.33l24.44,62.35c3.02,7.8,8.15,8.19,9.15,8.19c0.11,0,0.18,0,0.19-0.01
				l0.71-0.06l0,2.49H410.04z M407.78,237.92l-10.98-27.81l-10.14,27.81H407.78z"/>
			<path class="st1" d="M400.1,199.27l24.28,61.93c3.15,8.13,8.53,8.61,9.76,8.61c0.16,0,0.25-0.01,0.25-0.01v1.13h-23.71v-1.13
				c0,0,0.15,0.01,0.4,0.01c1.88,0,9.66-0.48,6.51-8.61l-8.29-20.98h-24.17l-5.06,13.92c-5.38,14.8,8.75,15.68,12.16,15.68
				c0.46,0,0.72-0.02,0.72-0.02v1.13h-27.5v-1.13c0,0,0.09,0.01,0.26,0.01c1.26,0,6.81-0.48,9.75-8.61l17.95-49.14
				c1.5-4.2,1.5-8.7-0.23-12.8H400.1 M385.72,238.58h23.01l-11.97-30.3L385.72,238.58 M400.99,197.96h-0.89h-6.9h-1.96l0.76,1.81
				c1.55,3.67,1.62,7.88,0.2,11.85l-17.95,49.13c-2.67,7.38-7.57,7.75-8.53,7.75c-0.08,0-0.13,0-0.15,0l-1.4-0.1l-0.01,1.4v1.13v1.3
				h1.3h27.5h1.3v-1.3v-1.13v-1.38l-1.38,0.08c-0.02,0-0.25,0.01-0.65,0.01c-1.87,0-8.18-0.29-10.83-4.08
				c-1.61-2.3-1.65-5.61-0.11-9.85l4.75-13.06h22.37l7.96,20.16c0.82,2.13,0.87,3.77,0.12,4.86c-0.99,1.45-3.45,1.97-5.42,1.97
				c-0.19,0-0.3-0.01-0.32-0.01l-1.37-0.08l0,1.38v1.13v1.3h1.3h23.71h1.3v-1.3v-1.13v-1.43l-1.43,0.14c-0.01,0-0.05,0-0.13,0
				c-0.92,0-5.68-0.37-8.54-7.77l-24.28-61.94L400.99,197.96L400.99,197.96z M387.58,237.27l9.23-25.32l10,25.32H387.58
				L387.58,237.27z"/>
		</g>
		<g>
			<path class="st1" d="M455.42,209.68v44.46c0,3.52,1.09,15.03,15.06,15.03c0.36,0,0.58-0.01,0.59-0.01l0.7-0.05l0,2.48h-28.81
				v-2.47l0.69,0.04c0.01,0,0.12,0.01,0.31,0.01c1.95,0,8.31-0.57,8.31-7.96v-52.21c0-7.38-6.36-7.96-8.31-7.96
				c-0.19,0-0.3,0.01-0.32,0.01l-0.69,0.04l0-2.47h13.64l41.71,57.8v-40.36c0-3.52-1.09-15.03-15.06-15.03
				c-0.36,0-0.58,0.01-0.59,0.01l-0.7,0.05l0-2.48h28.92v2.47l-0.69-0.04c-0.01,0-0.13-0.01-0.32-0.01c-1.98,0-8.42,0.57-8.42,7.96
				v64.46L455.42,209.68z"/>
			<path class="st1" d="M510.24,199.27v1.13c0,0-0.13-0.01-0.36-0.01c-1.73,0-9.08,0.48-9.08,8.61v62.44l-46.03-63.77v46.47
				c0,14.8,12.7,15.68,15.71,15.68c0.4,0,0.63-0.02,0.63-0.02v1.13h-27.5v-1.13c0,0,0.13,0.01,0.36,0.01c1.71,0,8.96-0.48,8.96-8.61
				v-52.21c0-8.13-7.25-8.61-8.96-8.61c-0.23,0-0.36,0.01-0.36,0.01v-1.13h12.66l42.69,59.17v-42.38c0-14.8-12.7-15.68-15.71-15.68
				c-0.4,0-0.63,0.02-0.63,0.02v-1.13H510.24 M511.54,197.96h-1.3h-27.62h-1.3v1.3v1.13v1.4l1.39-0.1c0.02,0,0.21-0.01,0.54-0.01
				c3.38,0,14.4,1.04,14.4,14.37v38.35l-40.33-55.9l-0.39-0.54h-0.67h-12.66h-1.3v1.3v1.13v1.39l1.39-0.09
				c0.01,0,0.11-0.01,0.27-0.01c6.91,0,7.66,5.11,7.66,7.3v52.21c0,2.2-0.75,7.3-7.66,7.3c-0.16,0-0.26,0-0.28-0.01l-1.38-0.08
				l0,1.38v1.13v1.3h1.3h27.5h1.3v-1.3v-1.13v-1.4l-1.39,0.1c-0.02,0-0.21,0.01-0.54,0.01c-3.38,0-14.41-1.04-14.41-14.37V211.7
				l43.67,60.5l2.36,3.27v-4.03v-62.44c0-2.2,0.76-7.3,7.77-7.3c0.16,0,0.26,0,0.28,0.01l1.38,0.08l0-1.38v-1.13V197.96
				L511.54,197.96z"/>
		</g>
	</g>
	<g>
		<g>
			<path class="st1" d="M160.71,137.94c-14.99,0-20.5-12.24-25.37-23.04c-3.88-8.61-7.23-16.05-14.48-16.05h-8.65v27.54
				c0,8.28,5.59,8.92,7.31,8.92c0.16,0,0.25-0.01,0.26-0.01l0.74-0.06l0,2.68H96.15v-2.68l0.74,0.06c0.01,0,0.11,0.01,0.26,0.01
				c1.71,0,7.31-0.64,7.31-8.92V68.12c0-8.28-5.59-8.92-7.31-8.92c-0.16,0-0.25,0.01-0.26,0.01l-0.74,0.06l0-2.68h36.21
				c6.68,0,12.32,2.29,16.29,6.64c3.52,3.85,5.46,9,5.46,14.5c0,10.18-6.81,21.14-21.75,21.14h-0.08c6.8,4.4,10.5,12.68,13.8,20.06
				c3.93,8.8,7.33,16.39,14.63,16.39h0.69v2.63H160.71z M127.35,95.66c12.67,0,18.44-9.3,18.44-17.94s-5.77-17.94-18.44-17.94
				h-15.14v35.88H127.35z"/>
			<path class="st1" d="M132.36,57.26c14,0,21.06,10.28,21.06,20.46c0,10.28-7.06,20.45-21.06,20.45h-2.73
				c16.74,7.77,16.05,37.82,31.08,37.82v1.26c-26.3,0-22.66-39.08-39.85-39.08h-9.34v28.23c0,9.07,6.47,9.61,7.99,9.61
				c0.2,0,0.32-0.01,0.32-0.01v1.26h-23V136c0,0,0.12,0.01,0.32,0.01c1.52,0,7.99-0.53,7.99-9.61V68.12c0-9.07-6.47-9.61-7.99-9.61
				c-0.2,0-0.32,0.01-0.32,0.01v-1.26H132.36 M111.52,96.35h15.83c12.75,0,19.13-9.37,19.13-18.63c0-9.26-6.38-18.63-19.13-18.63
				h-15.83V96.35 M132.36,55.89H96.83h-1.37v1.37v1.26v1.49l1.48-0.12c0.01,0,0.09,0,0.21,0c6.15,0,6.62,6.31,6.62,8.24v58.28
				c0,1.93-0.48,8.24-6.62,8.24c-0.12,0-0.19,0-0.21-0.01l-1.47-0.1L95.46,136v1.26v1.37h1.37h23h1.37v-1.37V136v-1.49l-1.48,0.12
				c-0.01,0-0.09,0-0.21,0c-6.15,0-6.62-6.31-6.62-8.24V99.54h7.97c6.8,0,10.07,7.25,13.85,15.64c4.95,10.99,10.57,23.44,26,23.44
				h1.37v-1.37V136v-1.37h-1.37c-6.86,0-10.17-7.41-14.01-15.99c-3.07-6.86-6.47-14.48-12.39-19.16c6.04-0.41,11.14-2.72,14.84-6.75
				c3.64-3.96,5.64-9.29,5.64-15.01c0-5.68-2-10.99-5.64-14.97C145.05,58.27,139.24,55.89,132.36,55.89L132.36,55.89z M112.89,60.46
				h14.46c12.2,0,17.76,8.95,17.76,17.26c0,8.31-5.56,17.26-17.76,17.26h-14.46V60.46L112.89,60.46z"/>
		</g>
		<g>
			<path class="st1" d="M211.04,138.51c-12.71,0-23.37-4.46-30.84-12.89c-6.62-7.47-10.26-17.54-10.26-28.37s3.65-20.89,10.26-28.37
				c7.47-8.43,18.13-12.89,30.84-12.89c12.71,0,23.4,4.46,30.9,12.89c6.66,7.48,10.32,17.56,10.32,28.37s-3.67,20.89-10.32,28.37
				C234.44,134.06,223.76,138.51,211.04,138.51z M211.04,59.21c-15.52,0-32.22,11.91-32.22,38.05s16.7,38.05,32.22,38.05
				c15.57,0,32.33-11.91,32.33-38.05S226.61,59.21,211.04,59.21z"/>
			<path class="st1" d="M211.04,56.69c26.98,0,40.53,20.23,40.53,40.57c0,20.34-13.55,40.57-40.53,40.57s-40.42-20.23-40.42-40.57
				C170.62,76.92,184.06,56.69,211.04,56.69 M211.04,136c21.97,0,33.02-19.31,33.02-38.74s-11.04-38.74-33.02-38.74
				c-21.86,0-32.91,19.31-32.91,38.74S189.18,136,211.04,136 M211.04,55.32c-12.91,0-23.75,4.54-31.36,13.12
				c-6.73,7.6-10.44,17.83-10.44,28.82c0,10.99,3.71,21.22,10.44,28.82c7.6,8.58,18.44,13.12,31.36,13.12
				c12.92,0,23.78-4.54,31.41-13.12c6.77-7.61,10.49-17.84,10.49-28.82s-3.73-21.22-10.49-28.82
				C234.82,59.86,223.96,55.32,211.04,55.32L211.04,55.32z M211.04,134.63c-15.19,0-31.54-11.69-31.54-37.37
				c0-25.67,16.35-37.37,31.54-37.37c15.24,0,31.65,11.69,31.65,37.37C242.69,115.26,232.79,134.63,211.04,134.63L211.04,134.63z"/>
		</g>
		<g>
			<path class="st1" d="M275.95,137.94v-2.68l0.74,0.06c0.01,0,0.11,0.01,0.26,0.01c0.71,0,2.53-0.12,4.17-1.28
				c2.08-1.46,3.13-4.03,3.13-7.65V98.37l-18.23-29.89c-5.38-8.83-10.59-9.28-11.58-9.28c-0.1,0-0.16,0-0.17,0.01l-0.75,0.07
				l-0.01-0.75v-1.94h25.51v2.67l-0.73-0.05c-0.01,0-0.14-0.01-0.35-0.01c-0.87,0-3.8,0.14-4.81,1.93c-0.8,1.41-0.29,3.7,1.46,6.64
				l16.36,26.67l10.81-18.77c3.35-5.81,4.24-10.17,2.63-12.96c-1.88-3.26-6.84-3.51-8.31-3.51c-0.38,0-0.61,0.02-0.62,0.02
				l-0.73,0.05l0-2.68h27.33v2.71l-0.76-0.08c-0.01,0-0.07-0.01-0.18-0.01c-1.02,0-6.37,0.45-11.45,9.27l-17.67,30.58v27.36
				c0,8.28,5.59,8.92,7.31,8.92c0.16,0,0.25-0.01,0.26-0.01l0.74-0.06l0,2.68H275.95z"/>
			<path class="st1" d="M321.38,57.26v1.26c0,0-0.09-0.01-0.25-0.01c-1.24,0-6.82,0.53-12.04,9.61l-17.76,30.74v27.54
				c0,9.07,6.47,9.61,7.99,9.61c0.2,0,0.32-0.01,0.32-0.01v1.26h-23V136c0,0,0.12,0.01,0.32,0.01c1.52,0,7.99-0.53,7.99-9.61V98.17
				l-18.33-30.05c-5.52-9.07-10.96-9.61-12.16-9.61c-0.16,0-0.25,0.01-0.25,0.01v-1.26h24.14v1.26c0,0-0.15-0.01-0.39-0.01
				c-1.84,0-9.36,0.53-3.94,9.61l16.96,27.65L302.36,76c9.54-16.52-3.14-17.5-6.28-17.5c-0.42,0-0.67,0.02-0.67,0.02v-1.26H321.38
				 M322.75,55.89h-1.37h-25.96h-1.37v1.37v1.26v1.47l1.47-0.1c0.02,0,0.23-0.01,0.57-0.01c1.38,0,6.02,0.23,7.72,3.17
				c1.46,2.53,0.55,6.77-2.63,12.28l-10.24,17.77L275.18,67.4c-1.59-2.66-2.11-4.78-1.45-5.94c0.66-1.17,2.61-1.58,4.22-1.58
				c0.18,0,0.29,0.01,0.31,0.01l1.45,0.09l0-1.46v-1.26v-1.37h-1.37H254.2h-1.37v1.37v1.26v1.53l1.52-0.17c0,0,0,0,0,0
				c0.01,0,0.04,0,0.09,0c0.93,0,5.81,0.43,10.99,8.95l18.13,29.73v27.84c0,1.93-0.48,8.24-6.62,8.24c-0.12,0-0.19,0-0.21-0.01
				l-1.47-0.1l-0.01,1.47v1.26v1.37h1.37h23H301v-1.37V136v-1.49l-1.48,0.12c-0.01,0-0.09,0-0.21,0c-6.15,0-6.62-6.31-6.62-8.24
				V99.23l17.58-30.42c4.89-8.49,9.9-8.92,10.86-8.92c0.06,0,0.11,0,0.13,0l1.48,0.12l0.02-1.48v-1.26V55.89L322.75,55.89z"/>
		</g>
		<g>
			<path class="st1" d="M421.59,137.94v-2.68l0.74,0.06c0.01,0,0.11,0.01,0.26,0.01c1.71,0,7.31-0.64,7.31-8.92V68.12
				c0-8.28-5.59-8.92-7.31-8.92c-0.16,0-0.25,0.01-0.26,0.01l-0.74,0.06l0-2.68h24.37v2.68l-0.74-0.06c-0.01,0-0.11-0.01-0.26-0.01
				c-0.71,0-2.53,0.12-4.17,1.28c-2.08,1.46-3.13,4.03-3.13,7.65v66.62h9.45c20.36,0,21.04-19.53,21.06-20.36l0.02-0.67l2.61,0
				v24.23H421.59z"/>
			<path class="st1" d="M445.27,57.26v1.26c0,0-0.12-0.01-0.32-0.01c-1.52,0-7.99,0.53-7.99,9.61v67.31h10.13
				c21.29,0,21.75-21.03,21.75-21.03h1.25v22.85h-47.82V136c0,0,0.12,0.01,0.32,0.01c1.52,0,7.99-0.53,7.99-9.61V68.12
				c0-9.07-6.47-9.61-7.99-9.61c-0.2,0-0.32,0.01-0.32,0.01v-1.26H445.27 M446.64,55.89h-1.37h-23h-1.37v1.37v1.26v1.49l1.48-0.12
				c0.01,0,0.09,0,0.21,0c6.15,0,6.62,6.31,6.62,8.24v58.28c0,1.93-0.48,8.24-6.62,8.24c-0.12,0-0.19,0-0.21-0.01l-1.47-0.1
				L420.9,136v1.26v1.37h1.37h47.82h1.37v-1.37V114.4v-1.37h-1.37h-1.25h-1.34l-0.03,1.34c-0.02,0.8-0.71,19.69-20.38,19.69h-8.76
				V68.12c0-3.38,0.96-5.76,2.84-7.09c1.48-1.04,3.14-1.15,3.78-1.15c0.12,0,0.19,0,0.21,0.01l1.47,0.1l0.01-1.47v-1.26V55.89
				L446.64,55.89z"/>
		</g>
		<g>
			<path class="st1" d="M375.46,175.56c-4.96,0-10.16-0.2-15.46-0.59c-30.07-2.55-56.67-11.29-61.66-13.01l-0.82-0.22
				c-2.95-1.01-5.59-1.87-8.05-2.64c-6.57,3.27-13.39,5.72-20.29,7.28c-6.93,1.55-13.08,2.34-18.29,2.34
				c-5.81,0-10.49-0.71-13.92-2.12c-3.65-1.48-5.5-3.96-5.5-7.36c0-1.78,0.67-3.41,1.98-4.85c1.24-1.38,2.91-2.56,5.1-3.61
				c2.09-0.99,4.54-1.78,7.29-2.37c2.73-0.58,5.64-0.88,8.65-0.88c2.89,0,6.33,0.29,10.25,0.87c3.84,0.57,7.73,1.21,11.54,1.9
				c3.61,0.65,7.09,1.38,10.35,2.16c2.9,0.7,5.06,1.22,6.45,1.57c50.52-28.23,68.7-76.35,73.23-91.08
				c-3.25-3.39-5.77-3.76-6.72-3.76c-0.2,0-0.32,0.02-0.35,0.02l-0.81,0.15l-0.01-0.82v-1.94h25.06v2.66l-0.71-0.03l-0.16,0
				c-0.57,0-3.5,0.08-4.77,1.7c-0.62,0.8-0.77,1.89-0.45,3.27l2.87,8.5l18.29,53.51c2.99,8.7,8.02,9.14,9,9.14
				c0.1,0,0.17,0,0.18-0.01l0.75-0.07l0,2.7h-24.83v-2.68l0.73,0.05c0.01,0,0.14,0.01,0.35,0.01c0.95,0,4.19-0.16,5.68-2.26
				c1.04-1.46,1.08-3.63,0.12-6.44l-8.04-22.97h-29.46c-10.04,14.86-22.26,27.89-36.31,38.76c-9.02,7.2-16.21,11.13-19.28,12.66
				c4.75,1.23,10.23,2.91,16.34,4.98c0.32,0.1,33.68,10.44,67.66,10.44c0,0,0.01,0,0.01,0c28.28,0,48.81-6.96,61-20.68l0.27-0.31
				l1.8,0.43l-0.43,0.79c-2.48,4.56-7.01,8.53-7.2,8.69C422.35,170.14,401.69,175.56,375.46,175.56
				C375.46,175.56,375.46,175.56,375.46,175.56z M250.9,150.96c-1.69,0-3.31,0.08-4.82,0.24c-1.5,0.17-2.87,0.48-4.05,0.92
				c-1.16,0.42-2.08,0.97-2.76,1.65c-0.62,0.62-0.92,1.39-0.92,2.36c0,2.68,1.93,4.61,5.89,5.91c4.15,1.34,9.4,2.02,15.61,2.02
				c2.85,0,6.86-0.52,11.9-1.54c4.52-0.9,9.16-2.42,13.83-4.52c-0.53-0.15-5.2-1.48-5.2-1.48c-3.09-0.88-6.41-1.71-9.85-2.49
				c-3.44-0.78-7.02-1.51-10.64-2.15C256.4,151.27,253.38,150.96,250.9,150.96z M381.46,100.46l-10.75-30.7
				c-4.18,10.8-9.42,21.11-15.58,30.7H381.46z"/>
			<path class="st1" d="M382.81,57.26v1.26c0,0-0.07,0-0.19,0c-1.16,0-7.24,0.26-5.88,5.85l-0.05-0.16l0.9,2.65l2.04,6.03
				l18.29,53.51c3.11,9.07,8.44,9.6,9.65,9.6c0.16,0,0.25-0.01,0.25-0.01v1.26h-23.46V136c0,0,0.14,0.01,0.39,0.01
				c1.86,0,9.56-0.53,6.45-9.6l-8.21-23.43h-30.31c-11.99,17.81-25.49,30.49-36.37,38.9c-9.34,7.46-16.75,11.41-19.6,12.8
				c-0.32,0.2-0.65,0.4-0.97,0.6h-0.3c5.16,1.26,11.2,3.07,18.14,5.44c0,0,33.4,10.48,67.89,10.48c23.35,0,47.2-4.81,61.52-20.91
				l0.53,0.13c-2.44,4.51-7.05,8.5-7.05,8.5c-16.61,12.24-39.37,15.98-61,15.98c-5.23,0-10.41-0.22-15.41-0.59
				c-33.51-2.85-62.31-13.26-62.31-13.26v0.07c-2.77-0.94-5.54-1.86-8.33-2.73c-6.65,3.34-13.44,5.78-20.38,7.34
				c-6.93,1.55-12.98,2.32-18.14,2.32c-5.73,0-10.28-0.69-13.66-2.07c-3.38-1.37-5.07-3.62-5.07-6.73c0-1.61,0.6-3.07,1.81-4.39
				c1.2-1.33,2.84-2.47,4.9-3.46c2.07-0.97,4.44-1.74,7.14-2.32c2.69-0.58,5.53-0.86,8.51-0.86c2.87,0,6.25,0.29,10.15,0.86
				c3.9,0.58,7.73,1.21,11.52,1.89c3.79,0.69,7.22,1.41,10.31,2.16c3.09,0.74,5.33,1.29,6.7,1.63
				c51.61-28.71,69.73-78.22,73.9-91.99c-3.55-3.84-6.4-4.26-7.49-4.26c-0.31,0-0.48,0.03-0.48,0.03v-1.26H382.81 M353.87,101.14
				h28.56l-10.49-29.96h0l-0.27-0.78c0,0,0,0,0,0l-0.49-1.39c-0.15-0.38-0.32-0.75-0.49-1.1
				C365.95,80.51,360.15,91.55,353.87,101.14 M259.84,164.75c2.86,0,6.88-0.51,12.04-1.55c5.16-1.03,10.37-2.81,15.65-5.34
				c-1.61-0.47-3.94-1.13-6.96-1.99c-3.05-0.86-6.35-1.7-9.89-2.5c-3.56-0.81-7.11-1.52-10.67-2.16c-3.54-0.63-6.58-0.95-9.11-0.95
				c-1.71,0-3.35,0.08-4.9,0.25c-1.55,0.18-2.95,0.49-4.21,0.96c-1.26,0.45-2.26,1.06-3.01,1.81c-0.74,0.74-1.12,1.69-1.12,2.84
				c0,2.99,2.12,5.17,6.36,6.56C248.26,164.07,253.54,164.75,259.84,164.75 M384.18,55.89h-1.37h-23.69h-1.37v1.37v1.26v1.68
				l1.64-0.34c0,0,0,0,0,0c0.01,0,0.09-0.01,0.21-0.01c0.65,0,2.93,0.25,5.94,3.26c-4.69,15.09-22.86,62.29-72.55,90.17
				c-1.53-0.38-3.7-0.91-6.19-1.5c-3.27-0.78-6.76-1.51-10.39-2.17c-3.83-0.69-7.72-1.33-11.56-1.9c-3.95-0.58-7.43-0.88-10.35-0.88
				c-3.06,0-6.02,0.3-8.79,0.9c-2.8,0.6-5.3,1.41-7.44,2.42c-2.28,1.1-4.02,2.33-5.33,3.78c-1.43,1.57-2.16,3.36-2.16,5.31
				c0,2.55,1.03,6,5.93,8c3.51,1.44,8.28,2.17,14.18,2.17c5.25,0,11.46-0.79,18.43-2.35c6.86-1.55,13.65-3.97,20.2-7.21
				c2.38,0.75,4.93,1.59,7.77,2.56l1.81,0.62v-0.07c6.9,2.31,32.31,10.28,60.82,12.7c5.33,0.4,10.54,0.6,15.52,0.6
				c26.38,0,47.18-5.47,61.81-16.25l0.04-0.03l0.04-0.04c0.2-0.17,4.82-4.21,7.36-8.88l0.85-1.57l-1.74-0.42l-0.53-0.13l-0.8-0.19
				l-0.54,0.61c-12.06,13.57-32.42,20.45-60.49,20.45c-33.89,0-67.15-10.31-67.48-10.42c-5.37-1.83-10.28-3.35-14.63-4.53
				c3.63-1.93,10.06-5.73,17.82-11.92c14-10.82,26.19-23.81,36.24-38.6h28.61l7.88,22.51c0.89,2.58,0.88,4.54-0.03,5.81
				c-1.31,1.83-4.25,1.97-5.12,1.97c-0.18,0-0.29-0.01-0.3-0.01l-1.45-0.09l0,1.46v1.26v1.37h1.37h23.46h1.37v-1.37V136v-1.53
				l-1.52,0.16c0,0,0,0,0,0c-0.01,0-0.05,0-0.1,0c-0.9,0-5.52-0.42-8.36-8.68l-18.29-53.51l-2.04-6.03l-0.82-2.44
				c-0.27-1.16-0.17-2.03,0.33-2.65c0.84-1.06,2.8-1.44,4.24-1.44c0.08,0,0.12,0,0.13,0l1.42,0.05l0-1.42v-1.26V55.89L384.18,55.89z
				 M356.38,99.77c5.58-8.81,10.37-18.22,14.3-28.05l9.82,28.05H356.38L356.38,99.77z M259.84,163.38c-6.14,0-11.32-0.67-15.4-1.99
				c-5.41-1.77-5.41-4.39-5.41-5.26c0-0.77,0.24-1.39,0.72-1.87c0.61-0.61,1.45-1.11,2.5-1.49c1.14-0.42,2.45-0.72,3.91-0.89
				c1.48-0.16,3.08-0.24,4.74-0.24c2.44,0,5.42,0.31,8.87,0.93c3.61,0.64,7.18,1.36,10.6,2.14c3.43,0.77,6.73,1.6,9.82,2.48
				l3.26,0.93c0.03,0.01,0.06,0.02,0.09,0.03c-4.03,1.69-8.03,2.93-11.93,3.71C266.61,162.87,262.65,163.38,259.84,163.38
				L259.84,163.38z"/>
		</g>
	</g>
</g>
</svg>
