<?xml version="1.0" encoding="utf-8"?>
<!-- Generator: Adobe Illustrator 28.0.0, SVG Export Plug-In . SVG Version: 6.00 Build 0)  -->
<svg version="1.1" id="Layer_1" xmlns="http://www.w3.org/2000/svg" xmlns:xlink="http://www.w3.org/1999/xlink" x="0px" y="0px"
	 viewBox="0 0 324.01 378" style="enable-background:new 0 0 324.01 378;" xml:space="preserve">
<style type="text/css">
	.st0{fill:#B98C4B;}
</style>
<g>
	<path class="st0" d="M177.4,207.41c11.3,15.09,21.19,30.95,29.56,47.52c19.78,39.13,30.33,80.5,31.44,123.07h6.13
		c2.47-56.5,32.64-107.2,79.48-142.8L292.15,189l-35.68-51.74c-12.28,8-24,16.66-35.13,25.97C205,176.91,190.34,191.68,177.4,207.41
		"/>
	<path class="st0" d="M111.47,378h50.34h51.49c-1.11-39.73-10.99-78.35-29.46-114.89c-6.26-12.4-13.44-24.37-21.45-35.89
		c-8.03,11.52-15.2,23.49-21.46,35.89C122.47,299.65,112.58,338.27,111.47,378"/>
	<path class="st0" d="M121.18,148.37c15.09,12.63,28.83,26.14,41.21,40.43c12.38-14.29,26.12-27.79,41.21-40.43
		c12.69-10.63,26.12-20.44,40.22-29.47L161.81,0L80.16,118.4C94.55,127.56,108.25,137.55,121.18,148.37"/>
	<path class="st0" d="M67.51,136.74L31.47,189L0,234.63C47.27,270.26,77.76,321.19,80.24,378h6.13
		c1.11-42.57,11.67-83.93,31.44-123.07c8.37-16.57,18.26-32.42,29.56-47.51c-12.93-15.73-27.6-30.5-43.94-44.19
		C92.07,153.71,80.07,144.89,67.51,136.74"/>
</g>
</svg>
